%TF.GenerationSoftware,KiCad,Pcbnew,9.0.7*%
%TF.CreationDate,2026-04-15T13:42:11-04:00*%
%TF.ProjectId,SeniorDesign,53656e69-6f72-4446-9573-69676e2e6b69,rev?*%
%TF.SameCoordinates,Original*%
%TF.FileFunction,Copper,L4,Bot*%
%TF.FilePolarity,Positive*%
%FSLAX46Y46*%
G04 Gerber Fmt 4.6, Leading zero omitted, Abs format (unit mm)*
G04 Created by KiCad (PCBNEW 9.0.7) date 2026-04-15 13:42:11*
%MOMM*%
%LPD*%
G01*
G04 APERTURE LIST*
G04 Aperture macros list*
%AMRoundRect*
0 Rectangle with rounded corners*
0 $1 Rounding radius*
0 $2 $3 $4 $5 $6 $7 $8 $9 X,Y pos of 4 corners*
0 Add a 4 corners polygon primitive as box body*
4,1,4,$2,$3,$4,$5,$6,$7,$8,$9,$2,$3,0*
0 Add four circle primitives for the rounded corners*
1,1,$1+$1,$2,$3*
1,1,$1+$1,$4,$5*
1,1,$1+$1,$6,$7*
1,1,$1+$1,$8,$9*
0 Add four rect primitives between the rounded corners*
20,1,$1+$1,$2,$3,$4,$5,0*
20,1,$1+$1,$4,$5,$6,$7,0*
20,1,$1+$1,$6,$7,$8,$9,0*
20,1,$1+$1,$8,$9,$2,$3,0*%
G04 Aperture macros list end*
%TA.AperFunction,ComponentPad*%
%ADD10C,1.676400*%
%TD*%
%TA.AperFunction,ComponentPad*%
%ADD11RoundRect,0.190500X-0.762000X-0.444500X0.762000X-0.444500X0.762000X0.444500X-0.762000X0.444500X0*%
%TD*%
%TA.AperFunction,ComponentPad*%
%ADD12RoundRect,0.360000X-0.840000X-0.840000X0.840000X-0.840000X0.840000X0.840000X-0.840000X0.840000X0*%
%TD*%
%TA.AperFunction,ViaPad*%
%ADD13C,0.600000*%
%TD*%
%TA.AperFunction,Conductor*%
%ADD14C,0.200000*%
%TD*%
G04 APERTURE END LIST*
D10*
%TO.P,,1*%
%TO.N,N/C*%
X198844965Y-42418000D03*
%TD*%
%TO.P,,1*%
%TO.N,N/C*%
X213360000Y-67818000D03*
%TD*%
%TO.P,,1*%
%TO.N,N/C*%
X165824965Y-80518000D03*
%TD*%
%TO.P,,1*%
%TO.N,N/C*%
X54610000Y-58420000D03*
%TD*%
%TO.P,,1*%
%TO.N,N/C*%
X191224965Y-65278000D03*
%TD*%
%TO.P,,1*%
%TO.N,N/C*%
X191224965Y-52578000D03*
%TD*%
%TO.P,,1*%
%TO.N,N/C*%
X233680000Y-30480000D03*
%TD*%
%TO.P,,1*%
%TO.N,N/C*%
X233680000Y-35560000D03*
%TD*%
%TO.P,,1*%
%TO.N,N/C*%
X173444965Y-44958000D03*
%TD*%
%TO.P,,1*%
%TO.N,N/C*%
X54610000Y-43180000D03*
%TD*%
%TO.P,,1*%
%TO.N,N/C*%
X160744965Y-80518000D03*
%TD*%
%TO.P,,1*%
%TO.N,N/C*%
X206464965Y-57658000D03*
%TD*%
%TO.P,,1*%
%TO.N,N/C*%
X132613400Y-77927200D03*
%TD*%
%TO.P,,1*%
%TO.N,N/C*%
X54610000Y-33020000D03*
%TD*%
%TO.P,,1*%
%TO.N,N/C*%
X203924965Y-42418000D03*
%TD*%
%TO.P,,1*%
%TO.N,N/C*%
X59690000Y-48260000D03*
%TD*%
%TO.P,,1*%
%TO.N,N/C*%
X233680000Y-45720000D03*
%TD*%
%TO.P,,1*%
%TO.N,N/C*%
X201384965Y-75438000D03*
%TD*%
%TO.P,,1*%
%TO.N,N/C*%
X213360000Y-83820000D03*
%TD*%
%TO.P,,1*%
%TO.N,N/C*%
X135153400Y-58877200D03*
%TD*%
%TO.P,,1*%
%TO.N,N/C*%
X59690000Y-58420000D03*
%TD*%
%TO.P,,1*%
%TO.N,N/C*%
X54610000Y-71120000D03*
%TD*%
%TO.P,,1*%
%TO.N,N/C*%
X203200000Y-116840000D03*
%TD*%
%TO.P,,1*%
%TO.N,N/C*%
X39370000Y-27940000D03*
%TD*%
%TO.P,,1*%
%TO.N,N/C*%
X143002000Y-53086000D03*
%TD*%
%TO.P,,1*%
%TO.N,N/C*%
X163284965Y-44958000D03*
%TD*%
%TO.P,,1*%
%TO.N,N/C*%
X54610000Y-60960000D03*
%TD*%
%TO.P,,1*%
%TO.N,N/C*%
X191224965Y-44958000D03*
%TD*%
%TO.P,,1*%
%TO.N,N/C*%
X191224965Y-57658000D03*
%TD*%
%TO.P,,1*%
%TO.N,N/C*%
X233680000Y-60960000D03*
%TD*%
%TO.P,,1*%
%TO.N,N/C*%
X110628100Y-110236000D03*
%TD*%
%TO.P,,1*%
%TO.N,N/C*%
X59690000Y-38100000D03*
%TD*%
D11*
%TO.P,Power_Switch,2*%
%TO.N,N/C*%
X175387300Y-135773800D03*
X193167300Y-135693800D03*
%TO.P,Power_Switch,3*%
X175387300Y-133233800D03*
X193167300Y-133153800D03*
%TO.P,Power_Switch,4*%
X175387300Y-130693800D03*
X193167300Y-130613800D03*
%TO.P,Power_Switch,5*%
X175387300Y-128153800D03*
X193167300Y-128073800D03*
%TO.P,Power_Switch,6*%
X175387300Y-125613800D03*
X193167300Y-125533800D03*
%TO.P,Power_Switch,7*%
X175387300Y-123073800D03*
X193167300Y-122993800D03*
D12*
%TO.P,Power_Switch,9*%
X176777300Y-120573800D03*
X181777300Y-120573800D03*
X186777300Y-120573800D03*
X191777300Y-120573800D03*
%TD*%
D10*
%TO.P,,1*%
%TO.N,N/C*%
X213360000Y-86360000D03*
%TD*%
%TO.P,,1*%
%TO.N,N/C*%
X206464965Y-42418000D03*
%TD*%
%TO.P,,1*%
%TO.N,N/C*%
X173444965Y-47498000D03*
%TD*%
%TO.P,,1*%
%TO.N,N/C*%
X206464965Y-65278000D03*
%TD*%
%TO.P,,1*%
%TO.N,N/C*%
X163284965Y-39878000D03*
%TD*%
%TO.P,,1*%
%TO.N,N/C*%
X191224965Y-72898000D03*
%TD*%
%TO.P,,1*%
%TO.N,N/C*%
X213360000Y-47498000D03*
%TD*%
%TO.P,,1*%
%TO.N,N/C*%
X213360000Y-52578000D03*
%TD*%
%TO.P,,1*%
%TO.N,N/C*%
X54610000Y-38100000D03*
%TD*%
%TO.P,,1*%
%TO.N,N/C*%
X59690000Y-50800000D03*
%TD*%
%TO.P,,1*%
%TO.N,N/C*%
X59690000Y-73660000D03*
%TD*%
%TO.P,,1*%
%TO.N,N/C*%
X54610000Y-63500000D03*
%TD*%
%TO.P,,1*%
%TO.N,N/C*%
X74930000Y-27940000D03*
%TD*%
%TO.P,,1*%
%TO.N,N/C*%
X206464965Y-70358000D03*
%TD*%
%TO.P,,1*%
%TO.N,N/C*%
X59690000Y-66040000D03*
%TD*%
%TO.P,,1*%
%TO.N,N/C*%
X54610000Y-55880000D03*
%TD*%
%TO.P,,1*%
%TO.N,N/C*%
X158204965Y-80518000D03*
%TD*%
%TO.P,,1*%
%TO.N,N/C*%
X142773400Y-77927200D03*
%TD*%
%TO.P,,1*%
%TO.N,N/C*%
X173444965Y-42418000D03*
%TD*%
%TO.P,,1*%
%TO.N,N/C*%
X54610000Y-40640000D03*
%TD*%
%TO.P,,1*%
%TO.N,N/C*%
X59690000Y-60960000D03*
%TD*%
%TO.P,,1*%
%TO.N,N/C*%
X191224965Y-70358000D03*
%TD*%
%TO.P,,1*%
%TO.N,N/C*%
X163284965Y-50038000D03*
%TD*%
%TO.P,,1*%
%TO.N,N/C*%
X132842000Y-53086000D03*
%TD*%
%TO.P,,1*%
%TO.N,N/C*%
X145542000Y-53086000D03*
%TD*%
%TO.P,,1*%
%TO.N,N/C*%
X132613400Y-58877200D03*
%TD*%
%TO.P,,1*%
%TO.N,N/C*%
X191224965Y-42418000D03*
%TD*%
%TO.P,,1*%
%TO.N,N/C*%
X163284965Y-47498000D03*
%TD*%
%TO.P,,1*%
%TO.N,N/C*%
X213360000Y-50038000D03*
%TD*%
%TO.P,,1*%
%TO.N,N/C*%
X206464965Y-50038000D03*
%TD*%
%TO.P,,1*%
%TO.N,N/C*%
X142773400Y-58877200D03*
%TD*%
%TO.P,,1*%
%TO.N,N/C*%
X173444965Y-39878000D03*
%TD*%
%TO.P,,1*%
%TO.N,N/C*%
X191224965Y-75438000D03*
%TD*%
%TO.P,,1*%
%TO.N,N/C*%
X206464965Y-60198000D03*
%TD*%
%TO.P,,1*%
%TO.N,N/C*%
X198844965Y-75438000D03*
%TD*%
%TO.P,,1*%
%TO.N,N/C*%
X191224965Y-47498000D03*
%TD*%
%TO.P,,1*%
%TO.N,N/C*%
X213360000Y-96520000D03*
%TD*%
%TO.P,,1*%
%TO.N,N/C*%
X213360000Y-78740000D03*
%TD*%
%TO.P,,1*%
%TO.N,N/C*%
X233680000Y-71120000D03*
%TD*%
%TO.P,,1*%
%TO.N,N/C*%
X59690000Y-45720000D03*
%TD*%
%TO.P,,1*%
%TO.N,N/C*%
X206464965Y-62738000D03*
%TD*%
%TO.P,,1*%
%TO.N,N/C*%
X59690000Y-53340000D03*
%TD*%
%TO.P,,1*%
%TO.N,N/C*%
X135153400Y-77927200D03*
%TD*%
%TO.P,,1*%
%TO.N,N/C*%
X206464965Y-55118000D03*
%TD*%
%TO.P,,1*%
%TO.N,N/C*%
X233680000Y-66040000D03*
%TD*%
%TO.P,,1*%
%TO.N,N/C*%
X59690000Y-63500000D03*
%TD*%
%TO.P,,1*%
%TO.N,N/C*%
X191224965Y-55118000D03*
%TD*%
%TO.P,,1*%
%TO.N,N/C*%
X54610000Y-27940000D03*
%TD*%
%TO.P,,1*%
%TO.N,N/C*%
X213360000Y-81280000D03*
%TD*%
%TO.P,,1*%
%TO.N,N/C*%
X206464965Y-75438000D03*
%TD*%
%TO.P,,1*%
%TO.N,N/C*%
X193764965Y-75438000D03*
%TD*%
%TO.P,,1*%
%TO.N,N/C*%
X152400000Y-109220000D03*
%TD*%
%TO.P,,1*%
%TO.N,N/C*%
X213360000Y-55118000D03*
%TD*%
%TO.P,,1*%
%TO.N,N/C*%
X54610000Y-73660000D03*
%TD*%
%TO.P,,1*%
%TO.N,N/C*%
X54610000Y-76200000D03*
%TD*%
%TO.P,,1*%
%TO.N,N/C*%
X233680000Y-40640000D03*
%TD*%
%TO.P,,1*%
%TO.N,N/C*%
X59690000Y-35560000D03*
%TD*%
%TO.P,,1*%
%TO.N,N/C*%
X54610000Y-48260000D03*
%TD*%
%TO.P,,1*%
%TO.N,N/C*%
X203924965Y-75438000D03*
%TD*%
%TO.P,,1*%
%TO.N,N/C*%
X54610000Y-50800000D03*
%TD*%
%TO.P,,1*%
%TO.N,N/C*%
X206464965Y-67818000D03*
%TD*%
%TO.P,,1*%
%TO.N,N/C*%
X170904965Y-80518000D03*
%TD*%
%TO.P,,1*%
%TO.N,N/C*%
X175984965Y-80518000D03*
%TD*%
%TO.P,,1*%
%TO.N,N/C*%
X173444965Y-52578000D03*
%TD*%
%TO.P,,1*%
%TO.N,N/C*%
X59690000Y-40640000D03*
%TD*%
%TO.P,,1*%
%TO.N,N/C*%
X59690000Y-30480000D03*
%TD*%
%TO.P,,1*%
%TO.N,N/C*%
X54610000Y-45720000D03*
%TD*%
%TO.P,,1*%
%TO.N,N/C*%
X213360000Y-76200000D03*
%TD*%
%TO.P,,1*%
%TO.N,N/C*%
X59690000Y-27940000D03*
%TD*%
%TO.P,,1*%
%TO.N,N/C*%
X108088100Y-54176000D03*
%TD*%
%TO.P,,1*%
%TO.N,N/C*%
X59690000Y-71120000D03*
%TD*%
%TO.P,,1*%
%TO.N,N/C*%
X41910000Y-27940000D03*
%TD*%
%TO.P,,1*%
%TO.N,N/C*%
X233680000Y-55880000D03*
%TD*%
%TO.P,,1*%
%TO.N,N/C*%
X145313400Y-58877200D03*
%TD*%
%TO.P,,1*%
%TO.N,N/C*%
X145313400Y-77927200D03*
%TD*%
%TO.P,,1*%
%TO.N,N/C*%
X54610000Y-66040000D03*
%TD*%
%TO.P,,1*%
%TO.N,N/C*%
X213360000Y-62738000D03*
%TD*%
%TO.P,,1*%
%TO.N,N/C*%
X113168100Y-54176000D03*
%TD*%
%TO.P,,1*%
%TO.N,N/C*%
X213360000Y-93980000D03*
%TD*%
%TO.P,,1*%
%TO.N,N/C*%
X213360000Y-60198000D03*
%TD*%
%TO.P,,1*%
%TO.N,N/C*%
X163284965Y-42418000D03*
%TD*%
%TO.P,,1*%
%TO.N,N/C*%
X110628100Y-54176000D03*
%TD*%
%TO.P,,1*%
%TO.N,N/C*%
X173444965Y-80518000D03*
%TD*%
%TO.P,,1*%
%TO.N,N/C*%
X59690000Y-55880000D03*
%TD*%
%TO.P,,1*%
%TO.N,N/C*%
X206464965Y-72898000D03*
%TD*%
%TO.P,,1*%
%TO.N,N/C*%
X213360000Y-65278000D03*
%TD*%
%TO.P,,1*%
%TO.N,N/C*%
X191224965Y-62738000D03*
%TD*%
%TO.P,,1*%
%TO.N,N/C*%
X191224965Y-50038000D03*
%TD*%
%TO.P,,1*%
%TO.N,N/C*%
X213360000Y-88900000D03*
%TD*%
%TO.P,,1*%
%TO.N,N/C*%
X206464965Y-52578000D03*
%TD*%
%TO.P,,1*%
%TO.N,N/C*%
X168364965Y-80518000D03*
%TD*%
%TO.P,,1*%
%TO.N,N/C*%
X233680000Y-50800000D03*
%TD*%
%TO.P,,1*%
%TO.N,N/C*%
X135382000Y-53086000D03*
%TD*%
%TO.P,,1*%
%TO.N,N/C*%
X191224965Y-67818000D03*
%TD*%
%TO.P,,1*%
%TO.N,N/C*%
X206464965Y-44958000D03*
%TD*%
%TO.P,,1*%
%TO.N,N/C*%
X213360000Y-91440000D03*
%TD*%
%TO.P,,1*%
%TO.N,N/C*%
X72390000Y-27940000D03*
%TD*%
%TO.P,,1*%
%TO.N,N/C*%
X59690000Y-43180000D03*
%TD*%
%TO.P,,1*%
%TO.N,N/C*%
X163284965Y-80518000D03*
%TD*%
%TO.P,,1*%
%TO.N,N/C*%
X162560000Y-109220000D03*
%TD*%
%TO.P,,1*%
%TO.N,N/C*%
X163284965Y-52578000D03*
%TD*%
%TO.P,,1*%
%TO.N,N/C*%
X54610000Y-30480000D03*
%TD*%
%TO.P,,1*%
%TO.N,N/C*%
X59690000Y-68580000D03*
%TD*%
%TO.P,,1*%
%TO.N,N/C*%
X196304965Y-42418000D03*
%TD*%
%TO.P,,1*%
%TO.N,N/C*%
X54610000Y-35560000D03*
%TD*%
D11*
%TO.P,Power_Switch,2*%
%TO.N,N/C*%
X203327300Y-135773800D03*
X221107300Y-135693800D03*
%TO.P,Power_Switch,3*%
X203327300Y-133233800D03*
X221107300Y-133153800D03*
%TO.P,Power_Switch,4*%
X203327300Y-130693800D03*
X221107300Y-130613800D03*
%TO.P,Power_Switch,5*%
X203327300Y-128153800D03*
X221107300Y-128073800D03*
%TO.P,Power_Switch,6*%
X203327300Y-125613800D03*
X221107300Y-125533800D03*
%TO.P,Power_Switch,7*%
X203327300Y-123073800D03*
X221107300Y-122993800D03*
D12*
%TO.P,Power_Switch,9*%
X204717300Y-120573800D03*
X209717300Y-120573800D03*
X214717300Y-120573800D03*
X219717300Y-120573800D03*
%TD*%
D10*
%TO.P,,1*%
%TO.N,N/C*%
X196304965Y-75438000D03*
%TD*%
%TO.P,,1*%
%TO.N,N/C*%
X59690000Y-76200000D03*
%TD*%
%TO.P,,1*%
%TO.N,N/C*%
X213360000Y-57658000D03*
%TD*%
%TO.P,,1*%
%TO.N,N/C*%
X173444965Y-50038000D03*
%TD*%
%TO.P,,1*%
%TO.N,N/C*%
X206464965Y-47498000D03*
%TD*%
%TO.P,,1*%
%TO.N,N/C*%
X193764965Y-42418000D03*
%TD*%
%TO.P,,1*%
%TO.N,N/C*%
X157480000Y-109220000D03*
%TD*%
%TO.P,,1*%
%TO.N,N/C*%
X191224965Y-60198000D03*
%TD*%
%TO.P,,1*%
%TO.N,N/C*%
X54610000Y-53340000D03*
%TD*%
%TO.P,,1*%
%TO.N,N/C*%
X201384965Y-42418000D03*
%TD*%
%TO.P,,1*%
%TO.N,N/C*%
X54610000Y-68580000D03*
%TD*%
%TO.P,,1*%
%TO.N,N/C*%
X59690000Y-33020000D03*
%TD*%
D13*
%TO.N,*%
X186690000Y-54610000D03*
%TD*%
D14*
%TO.N,*%
X127902300Y-68910200D02*
X113168100Y-54176000D01*
X186690000Y-54610000D02*
X172389800Y-68910200D01*
X113348100Y-54356000D02*
X113168100Y-54176000D01*
X172389800Y-68910200D02*
X127902300Y-68910200D01*
%TD*%
M02*
