%TF.GenerationSoftware,KiCad,Pcbnew,9.0.7*%
%TF.CreationDate,2026-04-15T13:42:11-04:00*%
%TF.ProjectId,SeniorDesign,53656e69-6f72-4446-9573-69676e2e6b69,rev?*%
%TF.SameCoordinates,Original*%
%TF.FileFunction,Copper,L1,Top*%
%TF.FilePolarity,Positive*%
%FSLAX46Y46*%
G04 Gerber Fmt 4.6, Leading zero omitted, Abs format (unit mm)*
G04 Created by KiCad (PCBNEW 9.0.7) date 2026-04-15 13:42:11*
%MOMM*%
%LPD*%
G01*
G04 APERTURE LIST*
G04 Aperture macros list*
%AMRoundRect*
0 Rectangle with rounded corners*
0 $1 Rounding radius*
0 $2 $3 $4 $5 $6 $7 $8 $9 X,Y pos of 4 corners*
0 Add a 4 corners polygon primitive as box body*
4,1,4,$2,$3,$4,$5,$6,$7,$8,$9,$2,$3,0*
0 Add four circle primitives for the rounded corners*
1,1,$1+$1,$2,$3*
1,1,$1+$1,$4,$5*
1,1,$1+$1,$6,$7*
1,1,$1+$1,$8,$9*
0 Add four rect primitives between the rounded corners*
20,1,$1+$1,$2,$3,$4,$5,0*
20,1,$1+$1,$4,$5,$6,$7,0*
20,1,$1+$1,$6,$7,$8,$9,0*
20,1,$1+$1,$8,$9,$2,$3,0*%
G04 Aperture macros list end*
%TA.AperFunction,ComponentPad*%
%ADD10C,1.676400*%
%TD*%
%TA.AperFunction,ComponentPad*%
%ADD11RoundRect,0.190500X-0.762000X-0.444500X0.762000X-0.444500X0.762000X0.444500X-0.762000X0.444500X0*%
%TD*%
%TA.AperFunction,ComponentPad*%
%ADD12RoundRect,0.360000X-0.840000X-0.840000X0.840000X-0.840000X0.840000X0.840000X-0.840000X0.840000X0*%
%TD*%
%TA.AperFunction,ViaPad*%
%ADD13C,0.600000*%
%TD*%
%TA.AperFunction,Conductor*%
%ADD14C,0.200000*%
%TD*%
%TA.AperFunction,Conductor*%
%ADD15C,1.000000*%
%TD*%
%TA.AperFunction,Conductor*%
%ADD16C,1.270000*%
%TD*%
G04 APERTURE END LIST*
D10*
%TO.P,,1*%
%TO.N,N/C*%
X198844965Y-42418000D03*
%TD*%
%TO.P,,1*%
%TO.N,N/C*%
X213360000Y-67818000D03*
%TD*%
%TO.P,,1*%
%TO.N,N/C*%
X165824965Y-80518000D03*
%TD*%
%TO.P,,1*%
%TO.N,N/C*%
X54610000Y-58420000D03*
%TD*%
%TO.P,,1*%
%TO.N,N/C*%
X191224965Y-65278000D03*
%TD*%
%TO.P,,1*%
%TO.N,N/C*%
X191224965Y-52578000D03*
%TD*%
%TO.P,,1*%
%TO.N,N/C*%
X233680000Y-30480000D03*
%TD*%
%TO.P,,1*%
%TO.N,N/C*%
X233680000Y-35560000D03*
%TD*%
%TO.P,,1*%
%TO.N,N/C*%
X173444965Y-44958000D03*
%TD*%
%TO.P,,1*%
%TO.N,N/C*%
X54610000Y-43180000D03*
%TD*%
%TO.P,,1*%
%TO.N,N/C*%
X160744965Y-80518000D03*
%TD*%
%TO.P,,1*%
%TO.N,N/C*%
X206464965Y-57658000D03*
%TD*%
%TO.P,,1*%
%TO.N,N/C*%
X132613400Y-77927200D03*
%TD*%
%TO.P,,1*%
%TO.N,N/C*%
X54610000Y-33020000D03*
%TD*%
%TO.P,,1*%
%TO.N,N/C*%
X203924965Y-42418000D03*
%TD*%
%TO.P,,1*%
%TO.N,N/C*%
X59690000Y-48260000D03*
%TD*%
%TO.P,,1*%
%TO.N,N/C*%
X233680000Y-45720000D03*
%TD*%
%TO.P,,1*%
%TO.N,N/C*%
X201384965Y-75438000D03*
%TD*%
%TO.P,,1*%
%TO.N,N/C*%
X213360000Y-83820000D03*
%TD*%
%TO.P,,1*%
%TO.N,N/C*%
X135153400Y-58877200D03*
%TD*%
%TO.P,,1*%
%TO.N,N/C*%
X59690000Y-58420000D03*
%TD*%
%TO.P,,1*%
%TO.N,N/C*%
X54610000Y-71120000D03*
%TD*%
%TO.P,,1*%
%TO.N,N/C*%
X203200000Y-116840000D03*
%TD*%
%TO.P,,1*%
%TO.N,N/C*%
X39370000Y-27940000D03*
%TD*%
%TO.P,,1*%
%TO.N,N/C*%
X143002000Y-53086000D03*
%TD*%
%TO.P,,1*%
%TO.N,N/C*%
X163284965Y-44958000D03*
%TD*%
%TO.P,,1*%
%TO.N,N/C*%
X54610000Y-60960000D03*
%TD*%
%TO.P,,1*%
%TO.N,N/C*%
X191224965Y-44958000D03*
%TD*%
%TO.P,,1*%
%TO.N,N/C*%
X191224965Y-57658000D03*
%TD*%
%TO.P,,1*%
%TO.N,N/C*%
X233680000Y-60960000D03*
%TD*%
%TO.P,,1*%
%TO.N,N/C*%
X110628100Y-110236000D03*
%TD*%
%TO.P,,1*%
%TO.N,N/C*%
X59690000Y-38100000D03*
%TD*%
D11*
%TO.P,Power_Switch,2*%
%TO.N,N/C*%
X175387300Y-135773800D03*
X193167300Y-135693800D03*
%TO.P,Power_Switch,3*%
X175387300Y-133233800D03*
X193167300Y-133153800D03*
%TO.P,Power_Switch,4*%
X175387300Y-130693800D03*
X193167300Y-130613800D03*
%TO.P,Power_Switch,5*%
X175387300Y-128153800D03*
X193167300Y-128073800D03*
%TO.P,Power_Switch,6*%
X175387300Y-125613800D03*
X193167300Y-125533800D03*
%TO.P,Power_Switch,7*%
X175387300Y-123073800D03*
X193167300Y-122993800D03*
D12*
%TO.P,Power_Switch,9*%
X176777300Y-120573800D03*
X181777300Y-120573800D03*
X186777300Y-120573800D03*
X191777300Y-120573800D03*
%TD*%
D10*
%TO.P,,1*%
%TO.N,N/C*%
X213360000Y-86360000D03*
%TD*%
%TO.P,,1*%
%TO.N,N/C*%
X206464965Y-42418000D03*
%TD*%
%TO.P,,1*%
%TO.N,N/C*%
X173444965Y-47498000D03*
%TD*%
%TO.P,,1*%
%TO.N,N/C*%
X206464965Y-65278000D03*
%TD*%
%TO.P,,1*%
%TO.N,N/C*%
X163284965Y-39878000D03*
%TD*%
%TO.P,,1*%
%TO.N,N/C*%
X191224965Y-72898000D03*
%TD*%
%TO.P,,1*%
%TO.N,N/C*%
X213360000Y-47498000D03*
%TD*%
%TO.P,,1*%
%TO.N,N/C*%
X213360000Y-52578000D03*
%TD*%
%TO.P,,1*%
%TO.N,N/C*%
X54610000Y-38100000D03*
%TD*%
%TO.P,,1*%
%TO.N,N/C*%
X59690000Y-50800000D03*
%TD*%
%TO.P,,1*%
%TO.N,N/C*%
X59690000Y-73660000D03*
%TD*%
%TO.P,,1*%
%TO.N,N/C*%
X54610000Y-63500000D03*
%TD*%
%TO.P,,1*%
%TO.N,N/C*%
X74930000Y-27940000D03*
%TD*%
%TO.P,,1*%
%TO.N,N/C*%
X206464965Y-70358000D03*
%TD*%
%TO.P,,1*%
%TO.N,N/C*%
X59690000Y-66040000D03*
%TD*%
%TO.P,,1*%
%TO.N,N/C*%
X54610000Y-55880000D03*
%TD*%
%TO.P,,1*%
%TO.N,N/C*%
X158204965Y-80518000D03*
%TD*%
%TO.P,,1*%
%TO.N,N/C*%
X142773400Y-77927200D03*
%TD*%
%TO.P,,1*%
%TO.N,N/C*%
X173444965Y-42418000D03*
%TD*%
%TO.P,,1*%
%TO.N,N/C*%
X54610000Y-40640000D03*
%TD*%
%TO.P,,1*%
%TO.N,N/C*%
X59690000Y-60960000D03*
%TD*%
%TO.P,,1*%
%TO.N,N/C*%
X191224965Y-70358000D03*
%TD*%
%TO.P,,1*%
%TO.N,N/C*%
X163284965Y-50038000D03*
%TD*%
%TO.P,,1*%
%TO.N,N/C*%
X132842000Y-53086000D03*
%TD*%
%TO.P,,1*%
%TO.N,N/C*%
X145542000Y-53086000D03*
%TD*%
%TO.P,,1*%
%TO.N,N/C*%
X132613400Y-58877200D03*
%TD*%
%TO.P,,1*%
%TO.N,N/C*%
X191224965Y-42418000D03*
%TD*%
%TO.P,,1*%
%TO.N,N/C*%
X163284965Y-47498000D03*
%TD*%
%TO.P,,1*%
%TO.N,N/C*%
X213360000Y-50038000D03*
%TD*%
%TO.P,,1*%
%TO.N,N/C*%
X206464965Y-50038000D03*
%TD*%
%TO.P,,1*%
%TO.N,N/C*%
X142773400Y-58877200D03*
%TD*%
%TO.P,,1*%
%TO.N,N/C*%
X173444965Y-39878000D03*
%TD*%
%TO.P,,1*%
%TO.N,N/C*%
X191224965Y-75438000D03*
%TD*%
%TO.P,,1*%
%TO.N,N/C*%
X206464965Y-60198000D03*
%TD*%
%TO.P,,1*%
%TO.N,N/C*%
X198844965Y-75438000D03*
%TD*%
%TO.P,,1*%
%TO.N,N/C*%
X191224965Y-47498000D03*
%TD*%
%TO.P,,1*%
%TO.N,N/C*%
X213360000Y-96520000D03*
%TD*%
%TO.P,,1*%
%TO.N,N/C*%
X213360000Y-78740000D03*
%TD*%
%TO.P,,1*%
%TO.N,N/C*%
X233680000Y-71120000D03*
%TD*%
%TO.P,,1*%
%TO.N,N/C*%
X59690000Y-45720000D03*
%TD*%
%TO.P,,1*%
%TO.N,N/C*%
X206464965Y-62738000D03*
%TD*%
%TO.P,,1*%
%TO.N,N/C*%
X59690000Y-53340000D03*
%TD*%
%TO.P,,1*%
%TO.N,N/C*%
X135153400Y-77927200D03*
%TD*%
%TO.P,,1*%
%TO.N,N/C*%
X206464965Y-55118000D03*
%TD*%
%TO.P,,1*%
%TO.N,N/C*%
X233680000Y-66040000D03*
%TD*%
%TO.P,,1*%
%TO.N,N/C*%
X59690000Y-63500000D03*
%TD*%
%TO.P,,1*%
%TO.N,N/C*%
X191224965Y-55118000D03*
%TD*%
%TO.P,,1*%
%TO.N,N/C*%
X54610000Y-27940000D03*
%TD*%
%TO.P,,1*%
%TO.N,N/C*%
X213360000Y-81280000D03*
%TD*%
%TO.P,,1*%
%TO.N,N/C*%
X206464965Y-75438000D03*
%TD*%
%TO.P,,1*%
%TO.N,N/C*%
X193764965Y-75438000D03*
%TD*%
%TO.P,,1*%
%TO.N,N/C*%
X152400000Y-109220000D03*
%TD*%
%TO.P,,1*%
%TO.N,N/C*%
X213360000Y-55118000D03*
%TD*%
%TO.P,,1*%
%TO.N,N/C*%
X54610000Y-73660000D03*
%TD*%
%TO.P,,1*%
%TO.N,N/C*%
X54610000Y-76200000D03*
%TD*%
%TO.P,,1*%
%TO.N,N/C*%
X233680000Y-40640000D03*
%TD*%
%TO.P,,1*%
%TO.N,N/C*%
X59690000Y-35560000D03*
%TD*%
%TO.P,,1*%
%TO.N,N/C*%
X54610000Y-48260000D03*
%TD*%
%TO.P,,1*%
%TO.N,N/C*%
X203924965Y-75438000D03*
%TD*%
%TO.P,,1*%
%TO.N,N/C*%
X54610000Y-50800000D03*
%TD*%
%TO.P,,1*%
%TO.N,N/C*%
X206464965Y-67818000D03*
%TD*%
%TO.P,,1*%
%TO.N,N/C*%
X170904965Y-80518000D03*
%TD*%
%TO.P,,1*%
%TO.N,N/C*%
X175984965Y-80518000D03*
%TD*%
%TO.P,,1*%
%TO.N,N/C*%
X173444965Y-52578000D03*
%TD*%
%TO.P,,1*%
%TO.N,N/C*%
X59690000Y-40640000D03*
%TD*%
%TO.P,,1*%
%TO.N,N/C*%
X59690000Y-30480000D03*
%TD*%
%TO.P,,1*%
%TO.N,N/C*%
X54610000Y-45720000D03*
%TD*%
%TO.P,,1*%
%TO.N,N/C*%
X213360000Y-76200000D03*
%TD*%
%TO.P,,1*%
%TO.N,N/C*%
X59690000Y-27940000D03*
%TD*%
%TO.P,,1*%
%TO.N,N/C*%
X108088100Y-54176000D03*
%TD*%
%TO.P,,1*%
%TO.N,N/C*%
X59690000Y-71120000D03*
%TD*%
%TO.P,,1*%
%TO.N,N/C*%
X41910000Y-27940000D03*
%TD*%
%TO.P,,1*%
%TO.N,N/C*%
X233680000Y-55880000D03*
%TD*%
%TO.P,,1*%
%TO.N,N/C*%
X145313400Y-58877200D03*
%TD*%
%TO.P,,1*%
%TO.N,N/C*%
X145313400Y-77927200D03*
%TD*%
%TO.P,,1*%
%TO.N,N/C*%
X54610000Y-66040000D03*
%TD*%
%TO.P,,1*%
%TO.N,N/C*%
X213360000Y-62738000D03*
%TD*%
%TO.P,,1*%
%TO.N,N/C*%
X113168100Y-54176000D03*
%TD*%
%TO.P,,1*%
%TO.N,N/C*%
X213360000Y-93980000D03*
%TD*%
%TO.P,,1*%
%TO.N,N/C*%
X213360000Y-60198000D03*
%TD*%
%TO.P,,1*%
%TO.N,N/C*%
X163284965Y-42418000D03*
%TD*%
%TO.P,,1*%
%TO.N,N/C*%
X110628100Y-54176000D03*
%TD*%
%TO.P,,1*%
%TO.N,N/C*%
X173444965Y-80518000D03*
%TD*%
%TO.P,,1*%
%TO.N,N/C*%
X59690000Y-55880000D03*
%TD*%
%TO.P,,1*%
%TO.N,N/C*%
X206464965Y-72898000D03*
%TD*%
%TO.P,,1*%
%TO.N,N/C*%
X213360000Y-65278000D03*
%TD*%
%TO.P,,1*%
%TO.N,N/C*%
X191224965Y-62738000D03*
%TD*%
%TO.P,,1*%
%TO.N,N/C*%
X191224965Y-50038000D03*
%TD*%
%TO.P,,1*%
%TO.N,N/C*%
X213360000Y-88900000D03*
%TD*%
%TO.P,,1*%
%TO.N,N/C*%
X206464965Y-52578000D03*
%TD*%
%TO.P,,1*%
%TO.N,N/C*%
X168364965Y-80518000D03*
%TD*%
%TO.P,,1*%
%TO.N,N/C*%
X233680000Y-50800000D03*
%TD*%
%TO.P,,1*%
%TO.N,N/C*%
X135382000Y-53086000D03*
%TD*%
%TO.P,,1*%
%TO.N,N/C*%
X191224965Y-67818000D03*
%TD*%
%TO.P,,1*%
%TO.N,N/C*%
X206464965Y-44958000D03*
%TD*%
%TO.P,,1*%
%TO.N,N/C*%
X213360000Y-91440000D03*
%TD*%
%TO.P,,1*%
%TO.N,N/C*%
X72390000Y-27940000D03*
%TD*%
%TO.P,,1*%
%TO.N,N/C*%
X59690000Y-43180000D03*
%TD*%
%TO.P,,1*%
%TO.N,N/C*%
X163284965Y-80518000D03*
%TD*%
%TO.P,,1*%
%TO.N,N/C*%
X162560000Y-109220000D03*
%TD*%
%TO.P,,1*%
%TO.N,N/C*%
X163284965Y-52578000D03*
%TD*%
%TO.P,,1*%
%TO.N,N/C*%
X54610000Y-30480000D03*
%TD*%
%TO.P,,1*%
%TO.N,N/C*%
X59690000Y-68580000D03*
%TD*%
%TO.P,,1*%
%TO.N,N/C*%
X196304965Y-42418000D03*
%TD*%
%TO.P,,1*%
%TO.N,N/C*%
X54610000Y-35560000D03*
%TD*%
D11*
%TO.P,Power_Switch,2*%
%TO.N,N/C*%
X203327300Y-135773800D03*
X221107300Y-135693800D03*
%TO.P,Power_Switch,3*%
X203327300Y-133233800D03*
X221107300Y-133153800D03*
%TO.P,Power_Switch,4*%
X203327300Y-130693800D03*
X221107300Y-130613800D03*
%TO.P,Power_Switch,5*%
X203327300Y-128153800D03*
X221107300Y-128073800D03*
%TO.P,Power_Switch,6*%
X203327300Y-125613800D03*
X221107300Y-125533800D03*
%TO.P,Power_Switch,7*%
X203327300Y-123073800D03*
X221107300Y-122993800D03*
D12*
%TO.P,Power_Switch,9*%
X204717300Y-120573800D03*
X209717300Y-120573800D03*
X214717300Y-120573800D03*
X219717300Y-120573800D03*
%TD*%
D10*
%TO.P,,1*%
%TO.N,N/C*%
X196304965Y-75438000D03*
%TD*%
%TO.P,,1*%
%TO.N,N/C*%
X59690000Y-76200000D03*
%TD*%
%TO.P,,1*%
%TO.N,N/C*%
X213360000Y-57658000D03*
%TD*%
%TO.P,,1*%
%TO.N,N/C*%
X173444965Y-50038000D03*
%TD*%
%TO.P,,1*%
%TO.N,N/C*%
X206464965Y-47498000D03*
%TD*%
%TO.P,,1*%
%TO.N,N/C*%
X193764965Y-42418000D03*
%TD*%
%TO.P,,1*%
%TO.N,N/C*%
X157480000Y-109220000D03*
%TD*%
%TO.P,,1*%
%TO.N,N/C*%
X191224965Y-60198000D03*
%TD*%
%TO.P,,1*%
%TO.N,N/C*%
X54610000Y-53340000D03*
%TD*%
%TO.P,,1*%
%TO.N,N/C*%
X201384965Y-42418000D03*
%TD*%
%TO.P,,1*%
%TO.N,N/C*%
X54610000Y-68580000D03*
%TD*%
%TO.P,,1*%
%TO.N,N/C*%
X59690000Y-33020000D03*
%TD*%
D13*
%TO.N,*%
X163942700Y-33020000D03*
X177912700Y-52070000D03*
X113168100Y-110236000D03*
X186715035Y-117596446D03*
X110628100Y-51816000D03*
X135915400Y-81026000D03*
X57034100Y-155651200D03*
X203200000Y-114300000D03*
X157480000Y-50800000D03*
X175984965Y-76518000D03*
X46874100Y-155651200D03*
X108088100Y-51816000D03*
X146075400Y-81026000D03*
X214655035Y-117596446D03*
X173444965Y-76518000D03*
X191795035Y-117596446D03*
X186690000Y-54610000D03*
X219735035Y-117596446D03*
%TD*%
D14*
%TO.N,*%
X135382000Y-58648600D02*
X135153400Y-58877200D01*
X206464965Y-62738000D02*
X213360000Y-62738000D01*
X188722000Y-57658000D02*
X185420000Y-60960000D01*
D15*
X233680000Y-40640000D02*
X233680000Y-45720000D01*
D14*
X206464965Y-57658000D02*
X213360000Y-57658000D01*
X59690000Y-45720000D02*
X67310000Y-45720000D01*
X203200000Y-116840000D02*
X203200000Y-114300000D01*
X191224965Y-44958000D02*
X175984965Y-44958000D01*
X185420000Y-60960000D02*
X185420000Y-95250000D01*
X186690000Y-77470000D02*
X203200000Y-93980000D01*
X206464965Y-47498000D02*
X213360000Y-47498000D01*
X163284965Y-33677735D02*
X163284965Y-39878000D01*
X191777300Y-120573800D02*
X191777300Y-117614181D01*
X191224965Y-62738000D02*
X189992000Y-62738000D01*
X108088100Y-51816000D02*
X108088100Y-54176000D01*
X169022700Y-40640000D02*
X170800700Y-42418000D01*
D16*
X143002000Y-53086000D02*
X143002000Y-58648600D01*
D14*
X186777300Y-120573800D02*
X186777300Y-117658711D01*
D15*
X233680000Y-66040000D02*
X233680000Y-71120000D01*
X152400000Y-109220000D02*
X157480000Y-109220000D01*
D14*
X175984965Y-80518000D02*
X175984965Y-76518000D01*
X135153400Y-80518000D02*
X135153400Y-77927200D01*
X203200000Y-91440000D02*
X213360000Y-91440000D01*
D16*
X135382000Y-53086000D02*
X135382000Y-58648600D01*
D14*
X191224965Y-52578000D02*
X188722000Y-52578000D01*
X110628100Y-110236000D02*
X113168100Y-110236000D01*
X183604965Y-104500000D02*
X183604965Y-104812265D01*
X203416965Y-39370000D02*
X173952965Y-39370000D01*
X155854400Y-42824400D02*
X160528000Y-47498000D01*
X170904965Y-67855035D02*
X188722000Y-50038000D01*
X67157600Y-43180000D02*
X73355200Y-36982400D01*
X191224965Y-65278000D02*
X189992000Y-65278000D01*
D16*
X132842000Y-53086000D02*
X132842000Y-58648600D01*
D14*
X59690000Y-43180000D02*
X67157600Y-43180000D01*
X187960000Y-67310000D02*
X187960000Y-76200000D01*
X163942700Y-33020000D02*
X163284965Y-33677735D01*
X195170000Y-105000000D02*
X212542700Y-105000000D01*
X157480000Y-50800000D02*
X157480000Y-51816000D01*
X170904965Y-80518000D02*
X170904965Y-67855035D01*
X182880000Y-60960000D02*
X182880000Y-103775035D01*
X206464965Y-55118000D02*
X213360000Y-55118000D01*
X188722000Y-55118000D02*
X182880000Y-60960000D01*
X202042700Y-33020000D02*
X174102700Y-33020000D01*
X146075400Y-81026000D02*
X145821400Y-81026000D01*
D15*
X233680000Y-45720000D02*
X233680000Y-50800000D01*
D14*
X161798000Y-42418000D02*
X163284965Y-42418000D01*
X145542000Y-58648600D02*
X145313400Y-58877200D01*
X197542700Y-118750000D02*
X197542700Y-128866065D01*
X206464965Y-42418000D02*
X203416965Y-39370000D01*
X73355200Y-36982400D02*
X156362400Y-36982400D01*
X219717300Y-120573800D02*
X219717300Y-117614181D01*
X191777300Y-117614181D02*
X191795035Y-117596446D01*
X143002000Y-58648600D02*
X142773400Y-58877200D01*
X212542700Y-105000000D02*
X225042700Y-117500000D01*
X173444965Y-80518000D02*
X173444965Y-76518000D01*
X157480000Y-51816000D02*
X158242000Y-52578000D01*
X219717300Y-117614181D02*
X219735035Y-117596446D01*
D15*
X233680000Y-35560000D02*
X233680000Y-40640000D01*
D14*
X68808600Y-45720000D02*
X67422700Y-45720000D01*
X185420000Y-95250000D02*
X195170000Y-105000000D01*
X175984965Y-42418000D02*
X173444965Y-44958000D01*
X191224965Y-57658000D02*
X188722000Y-57658000D01*
X59690000Y-48260000D02*
X69850000Y-48260000D01*
X170800700Y-42418000D02*
X173444965Y-42418000D01*
X191224965Y-55118000D02*
X188722000Y-55118000D01*
D15*
X233680000Y-50800000D02*
X233680000Y-55880000D01*
D14*
X182880000Y-103775035D02*
X183604965Y-104500000D01*
X135915400Y-81026000D02*
X135661400Y-81026000D01*
X183604965Y-104500000D02*
X183604965Y-104837354D01*
X183604965Y-104812265D02*
X197542700Y-118750000D01*
X206464965Y-44958000D02*
X209662700Y-41760265D01*
X225042700Y-129218400D02*
X221107300Y-133153800D01*
X110628100Y-51816000D02*
X110628100Y-54176000D01*
X161506965Y-45720000D02*
X156147565Y-40360600D01*
X163284965Y-44958000D02*
X162522965Y-45720000D01*
X145313400Y-80518000D02*
X145313400Y-77927200D01*
X75398300Y-42824400D02*
X155854400Y-42824400D01*
X206464965Y-65278000D02*
X213360000Y-65278000D01*
X156147565Y-40360600D02*
X74168000Y-40360600D01*
X168364965Y-67855035D02*
X188722000Y-47498000D01*
X188722000Y-52578000D02*
X186690000Y-54610000D01*
X169022700Y-38100000D02*
X169022700Y-40640000D01*
D15*
X157480000Y-109220000D02*
X162560000Y-109220000D01*
D14*
X187960000Y-76200000D02*
X203200000Y-91440000D01*
X214717300Y-120573800D02*
X214717300Y-117658711D01*
X209662700Y-40640000D02*
X202042700Y-33020000D01*
D16*
X145542000Y-53086000D02*
X145542000Y-58648600D01*
D14*
X203200000Y-93980000D02*
X213360000Y-93980000D01*
X189992000Y-62738000D02*
X186690000Y-66040000D01*
X69962700Y-48260000D02*
X75398300Y-42824400D01*
X173952965Y-39370000D02*
X173444965Y-39878000D01*
X197542700Y-128866065D02*
X197455035Y-128866065D01*
X197455035Y-128866065D02*
X193167300Y-133153800D01*
X145821400Y-81026000D02*
X145313400Y-80518000D01*
X132842000Y-58648600D02*
X132613400Y-58877200D01*
X186777300Y-117658711D02*
X186715035Y-117596446D01*
X168364965Y-80518000D02*
X168364965Y-67855035D01*
X206464965Y-52578000D02*
X213360000Y-52578000D01*
X177404700Y-52578000D02*
X177912700Y-52070000D01*
X225042700Y-117500000D02*
X225042700Y-129218400D01*
X135661400Y-81026000D02*
X135153400Y-80518000D01*
X162522965Y-45720000D02*
X161506965Y-45720000D01*
X158242000Y-52578000D02*
X163284965Y-52578000D01*
D15*
X233680000Y-30480000D02*
X233680000Y-35560000D01*
D14*
X156362400Y-36982400D02*
X161798000Y-42418000D01*
X209662700Y-41760265D02*
X209662700Y-40640000D01*
X206464965Y-60198000D02*
X213360000Y-60198000D01*
X188722000Y-47498000D02*
X191224965Y-47498000D01*
X191224965Y-42418000D02*
X175984965Y-42418000D01*
X188722000Y-50038000D02*
X191224965Y-50038000D01*
X189992000Y-65278000D02*
X187960000Y-67310000D01*
X74168000Y-40360600D02*
X68808600Y-45720000D01*
X175984965Y-44958000D02*
X173444965Y-47498000D01*
X174102700Y-33020000D02*
X169022700Y-38100000D01*
X214717300Y-117658711D02*
X214655035Y-117596446D01*
X160528000Y-47498000D02*
X163284965Y-47498000D01*
X173444965Y-52578000D02*
X177404700Y-52578000D01*
D15*
X233680000Y-55880000D02*
X233680000Y-60960000D01*
D14*
X186690000Y-66040000D02*
X186690000Y-77470000D01*
D15*
X233680000Y-60960000D02*
X233680000Y-66040000D01*
%TD*%
M02*
