M48
; DRILL file {KiCad 9.0.7} date 2026-04-15T13:42:23-0400
; FORMAT={-:-/ absolute / metric / decimal}
; #@! TF.CreationDate,2026-04-15T13:42:23-04:00
; #@! TF.GenerationSoftware,Kicad,Pcbnew,9.0.7
; #@! TF.FileFunction,Plated,1,4,PTH
FMAT,2
METRIC
; #@! TA.AperFunction,Plated,PTH,ViaDrill
T1C0.300
; #@! TA.AperFunction,Plated,PTH,ComponentDrill
T2C1.000
; #@! TA.AperFunction,Plated,PTH,ComponentDrill
T3C2.180
%
G90
G05
T1
X186.69Y-54.61
T2
X39.37Y-27.94
X41.91Y-27.94
X54.61Y-27.94
X54.61Y-30.48
X54.61Y-33.02
X54.61Y-35.56
X54.61Y-38.1
X54.61Y-40.64
X54.61Y-43.18
X54.61Y-45.72
X54.61Y-48.26
X54.61Y-50.8
X54.61Y-53.34
X54.61Y-55.88
X54.61Y-58.42
X54.61Y-60.96
X54.61Y-63.5
X54.61Y-66.04
X54.61Y-68.58
X54.61Y-71.12
X54.61Y-73.66
X54.61Y-76.2
X59.69Y-27.94
X59.69Y-30.48
X59.69Y-33.02
X59.69Y-35.56
X59.69Y-38.1
X59.69Y-40.64
X59.69Y-43.18
X59.69Y-45.72
X59.69Y-48.26
X59.69Y-50.8
X59.69Y-53.34
X59.69Y-55.88
X59.69Y-58.42
X59.69Y-60.96
X59.69Y-63.5
X59.69Y-66.04
X59.69Y-68.58
X59.69Y-71.12
X59.69Y-73.66
X59.69Y-76.2
X72.39Y-27.94
X74.93Y-27.94
X108.088Y-54.176
X110.628Y-54.176
X110.628Y-110.236
X113.168Y-54.176
X132.613Y-58.877
X132.613Y-77.927
X132.842Y-53.086
X135.153Y-58.877
X135.153Y-77.927
X135.382Y-53.086
X142.773Y-58.877
X142.773Y-77.927
X143.002Y-53.086
X145.313Y-58.877
X145.313Y-77.927
X145.542Y-53.086
X152.4Y-109.22
X157.48Y-109.22
X158.205Y-80.518
X160.745Y-80.518
X162.56Y-109.22
X163.285Y-39.878
X163.285Y-42.418
X163.285Y-44.958
X163.285Y-47.498
X163.285Y-50.038
X163.285Y-52.578
X163.285Y-80.518
X165.825Y-80.518
X168.365Y-80.518
X170.905Y-80.518
X173.445Y-39.878
X173.445Y-42.418
X173.445Y-44.958
X173.445Y-47.498
X173.445Y-50.038
X173.445Y-52.578
X173.445Y-80.518
X175.387Y-123.074
X175.387Y-125.614
X175.387Y-128.154
X175.387Y-130.694
X175.387Y-133.234
X175.387Y-135.774
X175.985Y-80.518
X191.225Y-42.418
X191.225Y-44.958
X191.225Y-47.498
X191.225Y-50.038
X191.225Y-52.578
X191.225Y-55.118
X191.225Y-57.658
X191.225Y-60.198
X191.225Y-62.738
X191.225Y-65.278
X191.225Y-67.818
X191.225Y-70.358
X191.225Y-72.898
X191.225Y-75.438
X193.167Y-122.994
X193.167Y-125.534
X193.167Y-128.074
X193.167Y-130.614
X193.167Y-133.154
X193.167Y-135.694
X193.765Y-42.418
X193.765Y-75.438
X196.305Y-42.418
X196.305Y-75.438
X198.845Y-42.418
X198.845Y-75.438
X201.385Y-42.418
X201.385Y-75.438
X203.2Y-116.84
X203.327Y-123.074
X203.327Y-125.614
X203.327Y-128.154
X203.327Y-130.694
X203.327Y-133.234
X203.327Y-135.774
X203.925Y-42.418
X203.925Y-75.438
X206.465Y-42.418
X206.465Y-44.958
X206.465Y-47.498
X206.465Y-50.038
X206.465Y-52.578
X206.465Y-55.118
X206.465Y-57.658
X206.465Y-60.198
X206.465Y-62.738
X206.465Y-65.278
X206.465Y-67.818
X206.465Y-70.358
X206.465Y-72.898
X206.465Y-75.438
X213.36Y-47.498
X213.36Y-50.038
X213.36Y-52.578
X213.36Y-55.118
X213.36Y-57.658
X213.36Y-60.198
X213.36Y-62.738
X213.36Y-65.278
X213.36Y-67.818
X213.36Y-76.2
X213.36Y-78.74
X213.36Y-81.28
X213.36Y-83.82
X213.36Y-86.36
X213.36Y-88.9
X213.36Y-91.44
X213.36Y-93.98
X213.36Y-96.52
X221.107Y-122.994
X221.107Y-125.534
X221.107Y-128.074
X221.107Y-130.614
X221.107Y-133.154
X221.107Y-135.694
X233.68Y-30.48
X233.68Y-35.56
X233.68Y-40.64
X233.68Y-45.72
X233.68Y-50.8
X233.68Y-55.88
X233.68Y-60.96
X233.68Y-66.04
X233.68Y-71.12
T3
X176.777Y-120.574
X181.777Y-120.574
X186.777Y-120.574
X191.777Y-120.574
X204.717Y-120.574
X209.717Y-120.574
X214.717Y-120.574
X219.717Y-120.574
M30
